<mxfile modified="2022-03-20T12:28:37.910Z" host="app.diagrams.net" agent="5.0 (Macintosh; Intel Mac OS X 10_15_7) AppleWebKit/537.36 (KHTML, like Gecko) Chrome/95.0.4638.54 Safari/537.36" etag="I22WrA5d-ylFPcedrxqt" version="17.1.2" type="github" pages="2">
  <diagram id="Ht1M8jgEwFfnCIfOTk4-" name="Page-1">
    <mxGraphModel dx="2330" dy="1550" grid="1" gridSize="10" guides="1" tooltips="1" connect="1" arrows="1" fold="1" page="1" pageScale="1" pageWidth="1169" pageHeight="827" math="0" shadow="0">
      <root>
        <mxCell id="0" />
        <mxCell id="1" parent="0" />
        <mxCell id="2NcvbdjM0_KqXBe06KlP-1" value="AWS Cloud" style="points=[[0,0],[0.25,0],[0.5,0],[0.75,0],[1,0],[1,0.25],[1,0.5],[1,0.75],[1,1],[0.75,1],[0.5,1],[0.25,1],[0,1],[0,0.75],[0,0.5],[0,0.25]];outlineConnect=0;gradientColor=none;html=1;whiteSpace=wrap;fontSize=12;fontStyle=0;container=1;pointerEvents=0;collapsible=0;recursiveResize=0;shape=mxgraph.aws4.group;grIcon=mxgraph.aws4.group_aws_cloud_alt;strokeColor=#232F3E;fillColor=none;verticalAlign=top;align=left;spacingLeft=30;fontColor=#232F3E;dashed=0;" vertex="1" parent="1">
          <mxGeometry x="-150" y="-140" width="1240" height="700" as="geometry" />
        </mxCell>
        <mxCell id="2NcvbdjM0_KqXBe06KlP-2" value="" style="edgeStyle=orthogonalEdgeStyle;html=1;endArrow=none;elbow=vertical;startArrow=openThin;startFill=0;strokeColor=#545B64;rounded=0;" edge="1" parent="2NcvbdjM0_KqXBe06KlP-1">
          <mxGeometry width="100" relative="1" as="geometry">
            <mxPoint x="-0.0049162011173251585" y="550" as="sourcePoint" />
            <mxPoint x="1240" y="550" as="targetPoint" />
          </mxGeometry>
        </mxCell>
        <mxCell id="2NcvbdjM0_KqXBe06KlP-3" value="" style="edgeStyle=orthogonalEdgeStyle;html=1;endArrow=none;elbow=vertical;startArrow=openThin;startFill=0;strokeColor=#545B64;rounded=0;" edge="1" parent="2NcvbdjM0_KqXBe06KlP-1">
          <mxGeometry width="100" relative="1" as="geometry">
            <mxPoint x="-0.004916201117339369" y="290" as="sourcePoint" />
            <mxPoint x="1240" y="290" as="targetPoint" />
          </mxGeometry>
        </mxCell>
        <mxCell id="2NcvbdjM0_KqXBe06KlP-4" value="&lt;h1&gt;&lt;font style=&quot;font-size: 14px&quot;&gt;Public Subnets&lt;/font&gt;&lt;/h1&gt;" style="text;html=1;strokeColor=none;fillColor=none;spacing=5;spacingTop=-20;whiteSpace=wrap;overflow=hidden;rounded=0;container=0;" vertex="1" parent="2NcvbdjM0_KqXBe06KlP-1">
          <mxGeometry x="20" y="120" width="140" height="110" as="geometry" />
        </mxCell>
        <mxCell id="2NcvbdjM0_KqXBe06KlP-5" value="&lt;h1&gt;&lt;font style=&quot;font-size: 14px&quot;&gt;Private Subnets&lt;/font&gt;&lt;/h1&gt;" style="text;html=1;strokeColor=none;fillColor=none;spacing=5;spacingTop=-20;whiteSpace=wrap;overflow=hidden;rounded=0;container=0;" vertex="1" parent="2NcvbdjM0_KqXBe06KlP-1">
          <mxGeometry x="20" y="299.15" width="140" height="110" as="geometry" />
        </mxCell>
        <mxCell id="2NcvbdjM0_KqXBe06KlP-7" value="&lt;b&gt;AWS Region&lt;/b&gt;" style="text;html=1;strokeColor=none;fillColor=none;align=center;verticalAlign=middle;whiteSpace=wrap;rounded=0;container=0;" vertex="1" parent="2NcvbdjM0_KqXBe06KlP-1">
          <mxGeometry x="640" y="660" width="80" height="30" as="geometry" />
        </mxCell>
        <mxCell id="2NcvbdjM0_KqXBe06KlP-8" value="&lt;font style=&quot;font-size: 18px&quot;&gt;&lt;b&gt;CHICKEY CHIK - MONGODB CLUSTER&lt;/b&gt;&lt;/font&gt;" style="text;html=1;strokeColor=none;fillColor=none;align=center;verticalAlign=middle;whiteSpace=wrap;rounded=0;" vertex="1" parent="2NcvbdjM0_KqXBe06KlP-1">
          <mxGeometry x="427.87" y="10" width="496.11" height="30" as="geometry" />
        </mxCell>
        <mxCell id="2NcvbdjM0_KqXBe06KlP-9" value="VPC" style="points=[[0,0],[0.25,0],[0.5,0],[0.75,0],[1,0],[1,0.25],[1,0.5],[1,0.75],[1,1],[0.75,1],[0.5,1],[0.25,1],[0,1],[0,0.75],[0,0.5],[0,0.25]];outlineConnect=0;gradientColor=none;html=1;whiteSpace=wrap;fontSize=12;fontStyle=0;container=0;pointerEvents=0;collapsible=0;recursiveResize=0;shape=mxgraph.aws4.group;grIcon=mxgraph.aws4.group_vpc;strokeColor=#248814;fillColor=none;verticalAlign=top;align=left;spacingLeft=30;fontColor=#AAB7B8;dashed=0;" vertex="1" parent="2NcvbdjM0_KqXBe06KlP-1">
          <mxGeometry x="159.89" y="108.47" width="1010" height="511.53" as="geometry" />
        </mxCell>
        <mxCell id="2NcvbdjM0_KqXBe06KlP-10" value="Availability Zone" style="fillColor=none;strokeColor=#147EBA;dashed=1;verticalAlign=top;fontStyle=0;fontColor=#147EBA;container=0;" vertex="1" parent="2NcvbdjM0_KqXBe06KlP-1">
          <mxGeometry x="752.34" y="60" width="366.75" height="520" as="geometry" />
        </mxCell>
        <mxCell id="2NcvbdjM0_KqXBe06KlP-11" value="Availability Zone" style="fillColor=none;strokeColor=#147EBA;dashed=1;verticalAlign=top;fontStyle=0;fontColor=#147EBA;container=0;" vertex="1" parent="2NcvbdjM0_KqXBe06KlP-1">
          <mxGeometry x="233.25" y="60" width="361.12" height="520" as="geometry" />
        </mxCell>
        <mxCell id="2NcvbdjM0_KqXBe06KlP-13" value="" style="outlineConnect=0;dashed=0;verticalLabelPosition=bottom;verticalAlign=top;align=center;html=1;shape=mxgraph.aws3.internet_gateway;fillColor=#F58536;gradientColor=none;" vertex="1" parent="2NcvbdjM0_KqXBe06KlP-1">
          <mxGeometry x="639.9990721649485" y="73.33000000000001" width="71.84536082474227" height="72" as="geometry" />
        </mxCell>
        <mxCell id="2NcvbdjM0_KqXBe06KlP-14" value="&lt;b&gt;Virtual Private Cloud&lt;/b&gt;" style="text;html=1;strokeColor=none;fillColor=none;align=center;verticalAlign=middle;whiteSpace=wrap;rounded=0;container=0;" vertex="1" parent="2NcvbdjM0_KqXBe06KlP-1">
          <mxGeometry x="605.92" y="580" width="140" height="30" as="geometry" />
        </mxCell>
        <mxCell id="2NcvbdjM0_KqXBe06KlP-21" value="&lt;h1&gt;&lt;span style=&quot;font-size: 14px ; font-weight: 400&quot;&gt;\&lt;/span&gt;&lt;/h1&gt;" style="text;html=1;strokeColor=none;fillColor=none;spacing=5;spacingTop=-20;whiteSpace=wrap;overflow=hidden;rounded=0;container=0;" vertex="1" parent="2NcvbdjM0_KqXBe06KlP-1">
          <mxGeometry x="322.4831800158604" y="664.1677272727272" width="182.61697065820778" height="122.98363636363636" as="geometry" />
        </mxCell>
        <mxCell id="2NcvbdjM0_KqXBe06KlP-30" value="" style="group" vertex="1" connectable="0" parent="2NcvbdjM0_KqXBe06KlP-1">
          <mxGeometry x="815.869381443299" y="132.69333333333333" width="260.30927835051546" height="128.50666666666666" as="geometry" />
        </mxCell>
        <mxCell id="2NcvbdjM0_KqXBe06KlP-31" value="" style="rounded=1;whiteSpace=wrap;html=1;container=0;" vertex="1" parent="2NcvbdjM0_KqXBe06KlP-30">
          <mxGeometry y="12.640000000000015" width="260.30927835051546" height="115.86666666666666" as="geometry" />
        </mxCell>
        <mxCell id="2NcvbdjM0_KqXBe06KlP-32" value="Elastic IPs (Public route)" style="rounded=0;whiteSpace=wrap;html=1;fillColor=#FF8000;strokeColor=#d79b00;gradientColor=#ffa500;container=0;" vertex="1" parent="2NcvbdjM0_KqXBe06KlP-30">
          <mxGeometry x="31.237113402061823" y="2.1066666666666833" width="197.83505154639175" height="21.066666666666663" as="geometry" />
        </mxCell>
        <mxCell id="2NcvbdjM0_KqXBe06KlP-33" value="Shared default network ACL" style="rounded=0;whiteSpace=wrap;html=1;container=0;" vertex="1" parent="2NcvbdjM0_KqXBe06KlP-30">
          <mxGeometry y="23.173333333333346" width="260.30927835051546" height="21.066666666666663" as="geometry" />
        </mxCell>
        <mxCell id="2NcvbdjM0_KqXBe06KlP-34" value="" style="outlineConnect=0;dashed=0;verticalLabelPosition=bottom;verticalAlign=top;align=center;html=1;shape=mxgraph.aws3.vpc_nat_gateway;fillColor=#F58534;gradientColor=none;container=0;" vertex="1" parent="2NcvbdjM0_KqXBe06KlP-30">
          <mxGeometry x="41.64948453608247" y="54.77333333333334" width="52.0618556701031" height="54.773333333333326" as="geometry" />
        </mxCell>
        <mxCell id="2NcvbdjM0_KqXBe06KlP-35" value="NAT Gateway" style="text;html=1;strokeColor=none;fillColor=none;align=center;verticalAlign=middle;whiteSpace=wrap;rounded=0;container=0;" vertex="1" parent="2NcvbdjM0_KqXBe06KlP-30">
          <mxGeometry x="114.53608247422676" y="66.36000000000001" width="62.47422680412372" height="31.599999999999998" as="geometry" />
        </mxCell>
        <mxCell id="2NcvbdjM0_KqXBe06KlP-36" value="" style="sketch=0;pointerEvents=1;shadow=0;dashed=0;html=1;strokeColor=#d79b00;labelPosition=center;verticalLabelPosition=bottom;verticalAlign=top;outlineConnect=0;align=center;shape=mxgraph.office.security.lock_protected;fillColor=#ffcd28;gradientColor=#ffa500;container=0;" vertex="1" parent="2NcvbdjM0_KqXBe06KlP-30">
          <mxGeometry width="20.824742268041238" height="23.173333333333332" as="geometry" />
        </mxCell>
        <mxCell id="2NcvbdjM0_KqXBe06KlP-37" value="" style="group" vertex="1" connectable="0" parent="2NcvbdjM0_KqXBe06KlP-1">
          <mxGeometry x="274.42938144329895" y="132.69333333333333" width="260.30927835051546" height="128.50666666666666" as="geometry" />
        </mxCell>
        <mxCell id="2NcvbdjM0_KqXBe06KlP-38" value="" style="rounded=1;whiteSpace=wrap;html=1;container=0;" vertex="1" parent="2NcvbdjM0_KqXBe06KlP-37">
          <mxGeometry y="12.640000000000015" width="260.30927835051546" height="115.86666666666666" as="geometry" />
        </mxCell>
        <mxCell id="2NcvbdjM0_KqXBe06KlP-39" value="Elastic IPs (Public route)" style="rounded=0;whiteSpace=wrap;html=1;fillColor=#FF8000;strokeColor=#d79b00;gradientColor=#ffa500;container=0;" vertex="1" parent="2NcvbdjM0_KqXBe06KlP-37">
          <mxGeometry x="31.237113402061823" y="2.1066666666666833" width="197.83505154639175" height="21.066666666666663" as="geometry" />
        </mxCell>
        <mxCell id="2NcvbdjM0_KqXBe06KlP-40" value="Shared default network ACL" style="rounded=0;whiteSpace=wrap;html=1;container=0;" vertex="1" parent="2NcvbdjM0_KqXBe06KlP-37">
          <mxGeometry y="23.173333333333346" width="260.30927835051546" height="21.066666666666663" as="geometry" />
        </mxCell>
        <mxCell id="2NcvbdjM0_KqXBe06KlP-41" value="" style="outlineConnect=0;dashed=0;verticalLabelPosition=bottom;verticalAlign=top;align=center;html=1;shape=mxgraph.aws3.vpc_nat_gateway;fillColor=#F58534;gradientColor=none;container=0;" vertex="1" parent="2NcvbdjM0_KqXBe06KlP-37">
          <mxGeometry x="41.64948453608247" y="54.77333333333334" width="52.0618556701031" height="54.773333333333326" as="geometry" />
        </mxCell>
        <mxCell id="2NcvbdjM0_KqXBe06KlP-42" value="NAT Gateway" style="text;html=1;strokeColor=none;fillColor=none;align=center;verticalAlign=middle;whiteSpace=wrap;rounded=0;container=0;" vertex="1" parent="2NcvbdjM0_KqXBe06KlP-37">
          <mxGeometry x="114.53608247422676" y="66.36000000000001" width="62.47422680412372" height="31.599999999999998" as="geometry" />
        </mxCell>
        <mxCell id="2NcvbdjM0_KqXBe06KlP-43" value="" style="sketch=0;pointerEvents=1;shadow=0;dashed=0;html=1;strokeColor=#d79b00;labelPosition=center;verticalLabelPosition=bottom;verticalAlign=top;outlineConnect=0;align=center;shape=mxgraph.office.security.lock_protected;fillColor=#ffcd28;gradientColor=#ffa500;container=0;" vertex="1" parent="2NcvbdjM0_KqXBe06KlP-37">
          <mxGeometry width="20.824742268041238" height="23.173333333333332" as="geometry" />
        </mxCell>
        <mxCell id="2NcvbdjM0_KqXBe06KlP-47" value="" style="group" vertex="1" connectable="0" parent="2NcvbdjM0_KqXBe06KlP-1">
          <mxGeometry x="274.4260824742268" y="308.59999999999997" width="249.89690721649487" height="218.8" as="geometry" />
        </mxCell>
        <mxCell id="2NcvbdjM0_KqXBe06KlP-15" value="" style="rounded=1;whiteSpace=wrap;html=1;fillColor=#f5f5f5;gradientColor=none;strokeColor=#666666;arcSize=19;container=0;" vertex="1" parent="2NcvbdjM0_KqXBe06KlP-47">
          <mxGeometry y="9.945454545454538" width="249.89690721649487" height="208.85454545454547" as="geometry" />
        </mxCell>
        <mxCell id="2NcvbdjM0_KqXBe06KlP-17" value="&lt;h1&gt;&lt;span style=&quot;font-weight: normal&quot;&gt;&lt;font style=&quot;font-size: 14px&quot;&gt;Private subnet&lt;/font&gt;&lt;/span&gt;&lt;/h1&gt;" style="text;html=1;strokeColor=none;fillColor=none;spacing=5;spacingTop=-20;whiteSpace=wrap;overflow=hidden;rounded=0;container=0;" vertex="1" parent="2NcvbdjM0_KqXBe06KlP-47">
          <mxGeometry x="76.79391752577317" y="140.51000000000005" width="106.73" height="37.72" as="geometry" />
        </mxCell>
        <mxCell id="2NcvbdjM0_KqXBe06KlP-18" value="" style="sketch=0;pointerEvents=1;shadow=0;dashed=0;html=1;strokeColor=#d79b00;labelPosition=center;verticalLabelPosition=bottom;verticalAlign=top;outlineConnect=0;align=center;shape=mxgraph.office.security.lock_protected;fillColor=#ffcd28;gradientColor=#ffa500;container=0;" vertex="1" parent="2NcvbdjM0_KqXBe06KlP-47">
          <mxGeometry x="9.611419508326719" width="19.222839016653452" height="21.88" as="geometry" />
        </mxCell>
        <mxCell id="2NcvbdjM0_KqXBe06KlP-44" value="" style="sketch=0;points=[[0,0,0],[0.25,0,0],[0.5,0,0],[0.75,0,0],[1,0,0],[0,1,0],[0.25,1,0],[0.5,1,0],[0.75,1,0],[1,1,0],[0,0.25,0],[0,0.5,0],[0,0.75,0],[1,0.25,0],[1,0.5,0],[1,0.75,0]];outlineConnect=0;fontColor=#232F3E;gradientColor=#4D72F3;gradientDirection=north;fillColor=#3334B9;strokeColor=#ffffff;dashed=0;verticalLabelPosition=bottom;verticalAlign=top;align=center;html=1;fontSize=12;fontStyle=0;aspect=fixed;shape=mxgraph.aws4.resourceIcon;resIcon=mxgraph.aws4.documentdb_with_mongodb_compatibility;" vertex="1" parent="2NcvbdjM0_KqXBe06KlP-47">
          <mxGeometry x="100.78391752577318" y="50.51000000000005" width="48" height="48" as="geometry" />
        </mxCell>
        <mxCell id="2NcvbdjM0_KqXBe06KlP-45" value="&lt;font style=&quot;font-size: 14px&quot;&gt;MongoDB Primary&lt;/font&gt;" style="text;html=1;strokeColor=none;fillColor=none;align=center;verticalAlign=middle;whiteSpace=wrap;rounded=0;fontSize=18;" vertex="1" parent="2NcvbdjM0_KqXBe06KlP-47">
          <mxGeometry x="94.78391752577318" y="110.51000000000005" width="60" height="30" as="geometry" />
        </mxCell>
        <mxCell id="2NcvbdjM0_KqXBe06KlP-48" value="" style="group" vertex="1" connectable="0" parent="2NcvbdjM0_KqXBe06KlP-1">
          <mxGeometry x="829.9960824742268" y="308.59999999999997" width="249.89690721649487" height="218.8" as="geometry" />
        </mxCell>
        <mxCell id="2NcvbdjM0_KqXBe06KlP-49" value="" style="rounded=1;whiteSpace=wrap;html=1;fillColor=#f5f5f5;gradientColor=none;strokeColor=#666666;arcSize=19;container=0;" vertex="1" parent="2NcvbdjM0_KqXBe06KlP-48">
          <mxGeometry y="9.945454545454538" width="249.89690721649487" height="208.85454545454547" as="geometry" />
        </mxCell>
        <mxCell id="2NcvbdjM0_KqXBe06KlP-50" value="&lt;h1&gt;&lt;span style=&quot;font-weight: normal&quot;&gt;&lt;font style=&quot;font-size: 14px&quot;&gt;Private subnet&lt;/font&gt;&lt;/span&gt;&lt;/h1&gt;" style="text;html=1;strokeColor=none;fillColor=none;spacing=5;spacingTop=-20;whiteSpace=wrap;overflow=hidden;rounded=0;container=0;" vertex="1" parent="2NcvbdjM0_KqXBe06KlP-48">
          <mxGeometry x="76.79391752577317" y="140.51000000000005" width="106.73" height="37.72" as="geometry" />
        </mxCell>
        <mxCell id="2NcvbdjM0_KqXBe06KlP-51" value="" style="sketch=0;pointerEvents=1;shadow=0;dashed=0;html=1;strokeColor=#d79b00;labelPosition=center;verticalLabelPosition=bottom;verticalAlign=top;outlineConnect=0;align=center;shape=mxgraph.office.security.lock_protected;fillColor=#ffcd28;gradientColor=#ffa500;container=0;" vertex="1" parent="2NcvbdjM0_KqXBe06KlP-48">
          <mxGeometry x="9.611419508326719" width="19.222839016653452" height="21.88" as="geometry" />
        </mxCell>
        <mxCell id="2NcvbdjM0_KqXBe06KlP-52" value="" style="sketch=0;points=[[0,0,0],[0.25,0,0],[0.5,0,0],[0.75,0,0],[1,0,0],[0,1,0],[0.25,1,0],[0.5,1,0],[0.75,1,0],[1,1,0],[0,0.25,0],[0,0.5,0],[0,0.75,0],[1,0.25,0],[1,0.5,0],[1,0.75,0]];outlineConnect=0;fontColor=#232F3E;gradientColor=#4D72F3;gradientDirection=north;fillColor=#3334B9;strokeColor=#ffffff;dashed=0;verticalLabelPosition=bottom;verticalAlign=top;align=center;html=1;fontSize=12;fontStyle=0;aspect=fixed;shape=mxgraph.aws4.resourceIcon;resIcon=mxgraph.aws4.documentdb_with_mongodb_compatibility;" vertex="1" parent="2NcvbdjM0_KqXBe06KlP-48">
          <mxGeometry x="100.78391752577318" y="50.51000000000005" width="48" height="48" as="geometry" />
        </mxCell>
        <mxCell id="2NcvbdjM0_KqXBe06KlP-53" value="&lt;font style=&quot;font-size: 14px&quot;&gt;MongoDB Primary&lt;/font&gt;" style="text;html=1;strokeColor=none;fillColor=none;align=center;verticalAlign=middle;whiteSpace=wrap;rounded=0;fontSize=18;" vertex="1" parent="2NcvbdjM0_KqXBe06KlP-48">
          <mxGeometry x="94.78391752577318" y="110.51000000000005" width="60" height="30" as="geometry" />
        </mxCell>
      </root>
    </mxGraphModel>
  </diagram>
  <diagram id="tbjmVLjrZqx34-_GH0Gp" name="AWS Infra &amp; network">
    <mxGraphModel dx="1988" dy="1892" grid="1" gridSize="10" guides="1" tooltips="1" connect="1" arrows="1" fold="1" page="1" pageScale="1" pageWidth="827" pageHeight="1169" math="0" shadow="0">
      <root>
        <mxCell id="gyqDpKCX4TDHPv0ywMbh-0" />
        <mxCell id="gyqDpKCX4TDHPv0ywMbh-1" parent="gyqDpKCX4TDHPv0ywMbh-0" />
        <mxCell id="gyqDpKCX4TDHPv0ywMbh-10" value="AWS Cloud" style="points=[[0,0],[0.25,0],[0.5,0],[0.75,0],[1,0],[1,0.25],[1,0.5],[1,0.75],[1,1],[0.75,1],[0.5,1],[0.25,1],[0,1],[0,0.75],[0,0.5],[0,0.25]];outlineConnect=0;gradientColor=none;html=1;whiteSpace=wrap;fontSize=12;fontStyle=0;container=1;pointerEvents=0;collapsible=0;recursiveResize=0;shape=mxgraph.aws4.group;grIcon=mxgraph.aws4.group_aws_cloud_alt;strokeColor=#232F3E;fillColor=none;verticalAlign=top;align=left;spacingLeft=30;fontColor=#232F3E;dashed=0;" parent="gyqDpKCX4TDHPv0ywMbh-1" vertex="1">
          <mxGeometry x="-150" y="-140" width="1240" height="920" as="geometry" />
        </mxCell>
        <mxCell id="gyqDpKCX4TDHPv0ywMbh-20" value="" style="edgeStyle=orthogonalEdgeStyle;html=1;endArrow=none;elbow=vertical;startArrow=openThin;startFill=0;strokeColor=#545B64;rounded=0;" parent="gyqDpKCX4TDHPv0ywMbh-10" edge="1">
          <mxGeometry width="100" relative="1" as="geometry">
            <mxPoint x="-0.0049162011173251585" y="550" as="sourcePoint" />
            <mxPoint x="1240" y="550" as="targetPoint" />
          </mxGeometry>
        </mxCell>
        <mxCell id="gyqDpKCX4TDHPv0ywMbh-21" value="" style="edgeStyle=orthogonalEdgeStyle;html=1;endArrow=none;elbow=vertical;startArrow=openThin;startFill=0;strokeColor=#545B64;rounded=0;" parent="gyqDpKCX4TDHPv0ywMbh-10" edge="1">
          <mxGeometry width="100" relative="1" as="geometry">
            <mxPoint x="-0.004916201117339369" y="290" as="sourcePoint" />
            <mxPoint x="1240" y="290" as="targetPoint" />
          </mxGeometry>
        </mxCell>
        <mxCell id="gyqDpKCX4TDHPv0ywMbh-22" value="&lt;h1&gt;&lt;font style=&quot;font-size: 14px&quot;&gt;Public Subnets&lt;/font&gt;&lt;/h1&gt;" style="text;html=1;strokeColor=none;fillColor=none;spacing=5;spacingTop=-20;whiteSpace=wrap;overflow=hidden;rounded=0;container=0;" parent="gyqDpKCX4TDHPv0ywMbh-10" vertex="1">
          <mxGeometry x="20" y="120" width="140" height="110" as="geometry" />
        </mxCell>
        <mxCell id="gyqDpKCX4TDHPv0ywMbh-23" value="&lt;h1&gt;&lt;font style=&quot;font-size: 14px&quot;&gt;Private Subnets&lt;/font&gt;&lt;/h1&gt;" style="text;html=1;strokeColor=none;fillColor=none;spacing=5;spacingTop=-20;whiteSpace=wrap;overflow=hidden;rounded=0;container=0;" parent="gyqDpKCX4TDHPv0ywMbh-10" vertex="1">
          <mxGeometry x="20" y="299.15" width="140" height="110" as="geometry" />
        </mxCell>
        <mxCell id="gyqDpKCX4TDHPv0ywMbh-24" value="&lt;h1&gt;&lt;font style=&quot;font-size: 14px&quot;&gt;Private Subnets&lt;/font&gt;&lt;/h1&gt;" style="text;html=1;strokeColor=none;fillColor=none;spacing=5;spacingTop=-20;whiteSpace=wrap;overflow=hidden;rounded=0;container=0;" parent="gyqDpKCX4TDHPv0ywMbh-10" vertex="1">
          <mxGeometry x="19.89" y="571.93" width="140" height="110" as="geometry" />
        </mxCell>
        <mxCell id="gyqDpKCX4TDHPv0ywMbh-12" value="&lt;b&gt;AWS Region&lt;/b&gt;" style="text;html=1;strokeColor=none;fillColor=none;align=center;verticalAlign=middle;whiteSpace=wrap;rounded=0;container=0;" parent="gyqDpKCX4TDHPv0ywMbh-10" vertex="1">
          <mxGeometry x="632.89" y="877.4" width="80" height="30" as="geometry" />
        </mxCell>
        <mxCell id="BX5cHhHJQbq8BXAtZxhY-2" value="&lt;font style=&quot;font-size: 18px&quot;&gt;&lt;b&gt;CHICKEY CHIK - AWS INFRASTRUCTURE &amp;amp; NETWORK&lt;/b&gt;&lt;/font&gt;" style="text;html=1;strokeColor=none;fillColor=none;align=center;verticalAlign=middle;whiteSpace=wrap;rounded=0;" vertex="1" parent="gyqDpKCX4TDHPv0ywMbh-10">
          <mxGeometry x="427.87" y="10" width="496.11" height="30" as="geometry" />
        </mxCell>
        <mxCell id="gyqDpKCX4TDHPv0ywMbh-11" value="VPC" style="points=[[0,0],[0.25,0],[0.5,0],[0.75,0],[1,0],[1,0.25],[1,0.5],[1,0.75],[1,1],[0.75,1],[0.5,1],[0.25,1],[0,1],[0,0.75],[0,0.5],[0,0.25]];outlineConnect=0;gradientColor=none;html=1;whiteSpace=wrap;fontSize=12;fontStyle=0;container=0;pointerEvents=0;collapsible=0;recursiveResize=0;shape=mxgraph.aws4.group;grIcon=mxgraph.aws4.group_vpc;strokeColor=#248814;fillColor=none;verticalAlign=top;align=left;spacingLeft=30;fontColor=#AAB7B8;dashed=0;" parent="gyqDpKCX4TDHPv0ywMbh-10" vertex="1">
          <mxGeometry x="159.89" y="108.46666666666667" width="1010.0000000000001" height="726.8" as="geometry" />
        </mxCell>
        <mxCell id="gyqDpKCX4TDHPv0ywMbh-14" value="Availability Zone" style="fillColor=none;strokeColor=#147EBA;dashed=1;verticalAlign=top;fontStyle=0;fontColor=#147EBA;container=0;" parent="gyqDpKCX4TDHPv0ywMbh-10" vertex="1">
          <mxGeometry x="752.34" y="60" width="366.75" height="817.4" as="geometry" />
        </mxCell>
        <mxCell id="gyqDpKCX4TDHPv0ywMbh-13" value="Availability Zone" style="fillColor=none;strokeColor=#147EBA;dashed=1;verticalAlign=top;fontStyle=0;fontColor=#147EBA;container=0;" parent="gyqDpKCX4TDHPv0ywMbh-10" vertex="1">
          <mxGeometry x="233.25" y="60" width="361.12" height="817.4" as="geometry" />
        </mxCell>
        <mxCell id="5qr1AgWUWyFfjsbozsjg-30" value="" style="rounded=1;whiteSpace=wrap;html=1;fillColor=#f5f5f5;gradientColor=none;strokeColor=#666666;arcSize=19;container=0;" parent="gyqDpKCX4TDHPv0ywMbh-10" vertex="1">
          <mxGeometry x="815.869381443299" y="582.8" width="260.30927835051546" height="204.6" as="geometry" />
        </mxCell>
        <mxCell id="BX5cHhHJQbq8BXAtZxhY-0" value="" style="outlineConnect=0;dashed=0;verticalLabelPosition=bottom;verticalAlign=top;align=center;html=1;shape=mxgraph.aws3.internet_gateway;fillColor=#F58536;gradientColor=none;" vertex="1" parent="gyqDpKCX4TDHPv0ywMbh-10">
          <mxGeometry x="639.9990721649485" y="73.33000000000001" width="71.84536082474227" height="72" as="geometry" />
        </mxCell>
        <mxCell id="BX5cHhHJQbq8BXAtZxhY-1" value="&lt;b&gt;Virtual Private Cloud&lt;/b&gt;" style="text;html=1;strokeColor=none;fillColor=none;align=center;verticalAlign=middle;whiteSpace=wrap;rounded=0;container=0;" vertex="1" parent="gyqDpKCX4TDHPv0ywMbh-10">
          <mxGeometry x="602.89" y="805.27" width="140" height="30" as="geometry" />
        </mxCell>
        <mxCell id="5qr1AgWUWyFfjsbozsjg-14" value="" style="rounded=1;whiteSpace=wrap;html=1;fillColor=#f5f5f5;gradientColor=none;strokeColor=#666666;arcSize=19;container=0;" parent="gyqDpKCX4TDHPv0ywMbh-10" vertex="1">
          <mxGeometry x="274.4260824742268" y="318.5454545454545" width="249.89690721649487" height="208.85454545454547" as="geometry" />
        </mxCell>
        <mxCell id="5qr1AgWUWyFfjsbozsjg-15" value="Shared default network ACL" style="rounded=0;whiteSpace=wrap;html=1;container=0;" parent="gyqDpKCX4TDHPv0ywMbh-10" vertex="1">
          <mxGeometry x="274.4260824742268" y="339.43090909090904" width="249.89690721649487" height="19.89090909090909" as="geometry" />
        </mxCell>
        <mxCell id="5qr1AgWUWyFfjsbozsjg-16" value="&lt;h1&gt;&lt;span style=&quot;font-weight: normal&quot;&gt;&lt;font style=&quot;font-size: 14px&quot;&gt;Private subnet A&lt;/font&gt;&lt;/span&gt;&lt;/h1&gt;&lt;div&gt;&lt;span style=&quot;font-weight: normal&quot;&gt;&lt;font style=&quot;font-size: 14px&quot;&gt;10.0.0.0/19&lt;/font&gt;&lt;/span&gt;&lt;/div&gt;&lt;div&gt;&lt;span style=&quot;font-size: 14px&quot;&gt;8187 IP addresses&lt;/span&gt;&lt;/div&gt;" style="text;html=1;strokeColor=none;fillColor=none;spacing=5;spacingTop=-20;whiteSpace=wrap;overflow=hidden;rounded=0;container=0;" parent="gyqDpKCX4TDHPv0ywMbh-10" vertex="1">
          <mxGeometry x="322.4831800158604" y="398.10909090909087" width="182.61697065820778" height="119.34545454545454" as="geometry" />
        </mxCell>
        <mxCell id="5qr1AgWUWyFfjsbozsjg-17" value="" style="sketch=0;pointerEvents=1;shadow=0;dashed=0;html=1;strokeColor=#d79b00;labelPosition=center;verticalLabelPosition=bottom;verticalAlign=top;outlineConnect=0;align=center;shape=mxgraph.office.security.lock_protected;fillColor=#ffcd28;gradientColor=#ffa500;container=0;" parent="gyqDpKCX4TDHPv0ywMbh-10" vertex="1">
          <mxGeometry x="284.0375019825535" y="308.59999999999997" width="19.222839016653452" height="21.88" as="geometry" />
        </mxCell>
        <mxCell id="5qr1AgWUWyFfjsbozsjg-20" value="" style="rounded=1;whiteSpace=wrap;html=1;fillColor=#f5f5f5;gradientColor=none;strokeColor=#666666;arcSize=19;container=0;" parent="gyqDpKCX4TDHPv0ywMbh-10" vertex="1">
          <mxGeometry x="274.4260824742268" y="582.1786363636363" width="249.89690721649487" height="215.22136363636363" as="geometry" />
        </mxCell>
        <mxCell id="5qr1AgWUWyFfjsbozsjg-21" value="Dedicated custom network ACL" style="rounded=0;whiteSpace=wrap;html=1;container=0;" parent="gyqDpKCX4TDHPv0ywMbh-10" vertex="1">
          <mxGeometry x="275.43" y="606.7" width="245.57" height="20.5" as="geometry" />
        </mxCell>
        <mxCell id="5qr1AgWUWyFfjsbozsjg-22" value="&lt;h1&gt;&lt;span style=&quot;font-weight: normal&quot;&gt;&lt;font style=&quot;font-size: 14px&quot;&gt;Private subnet B&lt;/font&gt;&lt;/span&gt;&lt;/h1&gt;&lt;div&gt;&lt;span style=&quot;font-weight: normal&quot;&gt;&lt;font style=&quot;font-size: 14px&quot;&gt;10.0.0.0/19&lt;/font&gt;&lt;/span&gt;&lt;/div&gt;&lt;div&gt;&lt;span style=&quot;font-size: 14px&quot;&gt;8187 IP addresses&lt;/span&gt;&lt;/div&gt;" style="text;html=1;strokeColor=none;fillColor=none;spacing=5;spacingTop=-20;whiteSpace=wrap;overflow=hidden;rounded=0;container=0;" parent="gyqDpKCX4TDHPv0ywMbh-10" vertex="1">
          <mxGeometry x="322.4831800158604" y="664.1677272727272" width="182.61697065820778" height="122.98363636363636" as="geometry" />
        </mxCell>
        <mxCell id="5qr1AgWUWyFfjsbozsjg-23" value="" style="sketch=0;pointerEvents=1;shadow=0;dashed=0;html=1;strokeColor=#d79b00;labelPosition=center;verticalLabelPosition=bottom;verticalAlign=top;outlineConnect=0;align=center;shape=mxgraph.office.security.lock_protected;fillColor=#ffcd28;gradientColor=#ffa500;container=0;" parent="gyqDpKCX4TDHPv0ywMbh-10" vertex="1">
          <mxGeometry x="284.0375019825535" y="571.93" width="19.222839016653452" height="22.547" as="geometry" />
        </mxCell>
        <mxCell id="5qr1AgWUWyFfjsbozsjg-25" value="" style="rounded=1;whiteSpace=wrap;html=1;fillColor=#f5f5f5;gradientColor=none;strokeColor=#666666;arcSize=19;container=0;" parent="gyqDpKCX4TDHPv0ywMbh-10" vertex="1">
          <mxGeometry x="815.869381443299" y="324.14863636363634" width="249.89690721649487" height="203.25136363636364" as="geometry" />
        </mxCell>
        <mxCell id="5qr1AgWUWyFfjsbozsjg-26" value="Shared default network ACL" style="rounded=0;whiteSpace=wrap;html=1;container=0;" parent="gyqDpKCX4TDHPv0ywMbh-10" vertex="1">
          <mxGeometry x="815.869381443299" y="344.4737727272727" width="249.89690721649487" height="19.35727272727273" as="geometry" />
        </mxCell>
        <mxCell id="5qr1AgWUWyFfjsbozsjg-27" value="&lt;h1&gt;&lt;span style=&quot;font-weight: normal&quot;&gt;&lt;font style=&quot;font-size: 14px&quot;&gt;Private subnet A&lt;/font&gt;&lt;/span&gt;&lt;/h1&gt;&lt;div&gt;&lt;span style=&quot;font-weight: normal&quot;&gt;&lt;font style=&quot;font-size: 14px&quot;&gt;10.0.0.0/19&lt;/font&gt;&lt;/span&gt;&lt;/div&gt;&lt;div&gt;&lt;span style=&quot;font-size: 14px&quot;&gt;8187 IP addresses&lt;/span&gt;&lt;/div&gt;" style="text;html=1;strokeColor=none;fillColor=none;spacing=5;spacingTop=-20;whiteSpace=wrap;overflow=hidden;rounded=0;container=0;" parent="gyqDpKCX4TDHPv0ywMbh-10" vertex="1">
          <mxGeometry x="863.9264789849326" y="401.57772727272726" width="182.61697065820778" height="116.14363636363636" as="geometry" />
        </mxCell>
        <mxCell id="5qr1AgWUWyFfjsbozsjg-28" value="" style="sketch=0;pointerEvents=1;shadow=0;dashed=0;html=1;strokeColor=#d79b00;labelPosition=center;verticalLabelPosition=bottom;verticalAlign=top;outlineConnect=0;align=center;shape=mxgraph.office.security.lock_protected;fillColor=#ffcd28;gradientColor=#ffa500;container=0;" parent="gyqDpKCX4TDHPv0ywMbh-10" vertex="1">
          <mxGeometry x="825.4808009516257" y="314.46999999999997" width="19.222839016653452" height="21.293" as="geometry" />
        </mxCell>
        <mxCell id="5qr1AgWUWyFfjsbozsjg-31" value="Dedicated custom network ACL" style="rounded=0;whiteSpace=wrap;html=1;container=0;" parent="gyqDpKCX4TDHPv0ywMbh-10" vertex="1">
          <mxGeometry x="815.869381443299" y="608.8" width="260.30927835051546" height="20" as="geometry" />
        </mxCell>
        <mxCell id="5qr1AgWUWyFfjsbozsjg-32" value="&lt;h1&gt;&lt;span style=&quot;font-weight: normal&quot;&gt;&lt;font style=&quot;font-size: 14px&quot;&gt;Private subnet B&lt;/font&gt;&lt;/span&gt;&lt;/h1&gt;&lt;div&gt;&lt;span style=&quot;font-weight: normal&quot;&gt;&lt;font style=&quot;font-size: 14px&quot;&gt;10.0.0.0/19&lt;/font&gt;&lt;/span&gt;&lt;/div&gt;&lt;div&gt;&lt;span style=&quot;font-size: 14px&quot;&gt;8187 IP addresses&lt;/span&gt;&lt;/div&gt;" style="text;html=1;strokeColor=none;fillColor=none;spacing=5;spacingTop=-20;whiteSpace=wrap;overflow=hidden;rounded=0;container=0;" parent="gyqDpKCX4TDHPv0ywMbh-10" vertex="1">
          <mxGeometry x="867.9312371134021" y="667.8" width="197.83505154639175" height="120" as="geometry" />
        </mxCell>
        <mxCell id="5qr1AgWUWyFfjsbozsjg-33" value="" style="sketch=0;pointerEvents=1;shadow=0;dashed=0;html=1;strokeColor=#d79b00;labelPosition=center;verticalLabelPosition=bottom;verticalAlign=top;outlineConnect=0;align=center;shape=mxgraph.office.security.lock_protected;fillColor=#ffcd28;gradientColor=#ffa500;container=0;" parent="gyqDpKCX4TDHPv0ywMbh-10" vertex="1">
          <mxGeometry x="826.2817525773196" y="577.8" width="20.824742268041238" height="22" as="geometry" />
        </mxCell>
        <mxCell id="BX5cHhHJQbq8BXAtZxhY-4" value="" style="group" vertex="1" connectable="0" parent="gyqDpKCX4TDHPv0ywMbh-10">
          <mxGeometry x="815.869381443299" y="132.69333333333333" width="260.30927835051546" height="128.50666666666666" as="geometry" />
        </mxCell>
        <mxCell id="5qr1AgWUWyFfjsbozsjg-8" value="" style="rounded=1;whiteSpace=wrap;html=1;container=0;" parent="BX5cHhHJQbq8BXAtZxhY-4" vertex="1">
          <mxGeometry y="12.640000000000015" width="260.30927835051546" height="115.86666666666666" as="geometry" />
        </mxCell>
        <mxCell id="5qr1AgWUWyFfjsbozsjg-9" value="Elastic IPs (Public route)" style="rounded=0;whiteSpace=wrap;html=1;fillColor=#FF8000;strokeColor=#d79b00;gradientColor=#ffa500;container=0;" parent="BX5cHhHJQbq8BXAtZxhY-4" vertex="1">
          <mxGeometry x="31.237113402061823" y="2.1066666666666833" width="197.83505154639175" height="21.066666666666663" as="geometry" />
        </mxCell>
        <mxCell id="5qr1AgWUWyFfjsbozsjg-10" value="Shared default network ACL" style="rounded=0;whiteSpace=wrap;html=1;container=0;" parent="BX5cHhHJQbq8BXAtZxhY-4" vertex="1">
          <mxGeometry y="23.173333333333346" width="260.30927835051546" height="21.066666666666663" as="geometry" />
        </mxCell>
        <mxCell id="5qr1AgWUWyFfjsbozsjg-11" value="" style="outlineConnect=0;dashed=0;verticalLabelPosition=bottom;verticalAlign=top;align=center;html=1;shape=mxgraph.aws3.vpc_nat_gateway;fillColor=#F58534;gradientColor=none;container=0;" parent="BX5cHhHJQbq8BXAtZxhY-4" vertex="1">
          <mxGeometry x="41.64948453608247" y="54.77333333333334" width="52.0618556701031" height="54.773333333333326" as="geometry" />
        </mxCell>
        <mxCell id="5qr1AgWUWyFfjsbozsjg-12" value="NAT Gateway" style="text;html=1;strokeColor=none;fillColor=none;align=center;verticalAlign=middle;whiteSpace=wrap;rounded=0;container=0;" parent="BX5cHhHJQbq8BXAtZxhY-4" vertex="1">
          <mxGeometry x="114.53608247422676" y="66.36000000000001" width="62.47422680412372" height="31.599999999999998" as="geometry" />
        </mxCell>
        <mxCell id="5qr1AgWUWyFfjsbozsjg-13" value="" style="sketch=0;pointerEvents=1;shadow=0;dashed=0;html=1;strokeColor=#d79b00;labelPosition=center;verticalLabelPosition=bottom;verticalAlign=top;outlineConnect=0;align=center;shape=mxgraph.office.security.lock_protected;fillColor=#ffcd28;gradientColor=#ffa500;container=0;" parent="BX5cHhHJQbq8BXAtZxhY-4" vertex="1">
          <mxGeometry width="20.824742268041238" height="23.173333333333332" as="geometry" />
        </mxCell>
        <mxCell id="BX5cHhHJQbq8BXAtZxhY-5" value="" style="group" vertex="1" connectable="0" parent="gyqDpKCX4TDHPv0ywMbh-10">
          <mxGeometry x="274.42938144329895" y="132.69333333333333" width="260.30927835051546" height="128.50666666666666" as="geometry" />
        </mxCell>
        <mxCell id="BX5cHhHJQbq8BXAtZxhY-6" value="" style="rounded=1;whiteSpace=wrap;html=1;container=0;" vertex="1" parent="BX5cHhHJQbq8BXAtZxhY-5">
          <mxGeometry y="12.640000000000015" width="260.30927835051546" height="115.86666666666666" as="geometry" />
        </mxCell>
        <mxCell id="BX5cHhHJQbq8BXAtZxhY-7" value="Elastic IPs (Public route)" style="rounded=0;whiteSpace=wrap;html=1;fillColor=#FF8000;strokeColor=#d79b00;gradientColor=#ffa500;container=0;" vertex="1" parent="BX5cHhHJQbq8BXAtZxhY-5">
          <mxGeometry x="31.237113402061823" y="2.1066666666666833" width="197.83505154639175" height="21.066666666666663" as="geometry" />
        </mxCell>
        <mxCell id="BX5cHhHJQbq8BXAtZxhY-8" value="Shared default network ACL" style="rounded=0;whiteSpace=wrap;html=1;container=0;" vertex="1" parent="BX5cHhHJQbq8BXAtZxhY-5">
          <mxGeometry y="23.173333333333346" width="260.30927835051546" height="21.066666666666663" as="geometry" />
        </mxCell>
        <mxCell id="BX5cHhHJQbq8BXAtZxhY-9" value="" style="outlineConnect=0;dashed=0;verticalLabelPosition=bottom;verticalAlign=top;align=center;html=1;shape=mxgraph.aws3.vpc_nat_gateway;fillColor=#F58534;gradientColor=none;container=0;" vertex="1" parent="BX5cHhHJQbq8BXAtZxhY-5">
          <mxGeometry x="41.64948453608247" y="54.77333333333334" width="52.0618556701031" height="54.773333333333326" as="geometry" />
        </mxCell>
        <mxCell id="BX5cHhHJQbq8BXAtZxhY-10" value="NAT Gateway" style="text;html=1;strokeColor=none;fillColor=none;align=center;verticalAlign=middle;whiteSpace=wrap;rounded=0;container=0;" vertex="1" parent="BX5cHhHJQbq8BXAtZxhY-5">
          <mxGeometry x="114.53608247422676" y="66.36000000000001" width="62.47422680412372" height="31.599999999999998" as="geometry" />
        </mxCell>
        <mxCell id="BX5cHhHJQbq8BXAtZxhY-11" value="" style="sketch=0;pointerEvents=1;shadow=0;dashed=0;html=1;strokeColor=#d79b00;labelPosition=center;verticalLabelPosition=bottom;verticalAlign=top;outlineConnect=0;align=center;shape=mxgraph.office.security.lock_protected;fillColor=#ffcd28;gradientColor=#ffa500;container=0;" vertex="1" parent="BX5cHhHJQbq8BXAtZxhY-5">
          <mxGeometry width="20.824742268041238" height="23.173333333333332" as="geometry" />
        </mxCell>
      </root>
    </mxGraphModel>
  </diagram>
</mxfile>
